<?xml version="1.0" standalone="no"?>
<!DOCTYPE svg PUBLIC "-//W3C//DTD SVG 20010904//EN"
 "http://www.w3.org/TR/2001/REC-SVG-20010904/DTD/svg10.dtd">
<svg version="1.0" xmlns="http://www.w3.org/2000/svg"
 width="260.000000pt" height="260.000000pt" viewBox="0 0 260.000000 260.000000"
 preserveAspectRatio="xMidYMid meet">
<metadata>
Created by potrace 1.14, written by Peter Selinger 2001-2017
</metadata>
<g transform="translate(0.000000,260.000000) scale(0.100000,-0.100000)"
fill="#000000" stroke="none">
<path d="M1188 2595 c-2 -2 -30 -6 -63 -10 -32 -3 -62 -8 -65 -10 -3 -2 -21
-6 -40 -9 -66 -10 -195 -57 -298 -108 -300 -147 -539 -418 -646 -732 -20 -59
-38 -123 -37 -133 0 -2 -5 -17 -10 -35 -21 -73 -31 -333 -16 -428 28 -177 66
-293 144 -442 193 -366 566 -623 983 -678 100 -13 317 -5 410 14 171 36 335
105 481 202 95 62 280 248 343 342 158 239 227 475 221 757 -6 347 -133 643
-380 890 -108 108 -209 182 -336 245 -79 40 -225 94 -284 104 -16 3 -57 11
-90 17 -52 10 -309 21 -317 14z"/>
</g>
</svg>
